<svg width="16" height="16" viewBox="0 0 16 16" fill="none" xmlns="http://www.w3.org/2000/svg">
<path d="M8 16C12.4183 16 16 12.4183 16 8C16 3.58172 12.4183 0 8 0C3.58172 0 0 3.58172 0 8C0 12.4183 3.58172 16 8 16Z" fill="url(#paint0_linear)"/>
<path d="M2.97774 9.30341L3.01653 9.28644C3.04401 9.34947 3.12966 9.3228 3.20481 9.29048L3.73896 9.05695C3.80926 9.12644 3.97896 9.23876 4.11714 9.55392C4.28361 9.93371 4.09532 10.5988 3.60239 10.8145C2.98179 11.086 2.56643 10.72 2.37653 10.2868C2.22703 9.94503 2.33047 9.69048 2.47916 9.6226C2.56562 9.58462 2.66906 9.61129 2.71673 9.70745C2.74582 9.76078 2.75229 9.81493 2.75229 9.81493C2.69896 9.83836 2.40158 10.0428 2.49128 10.2472C2.59956 10.4953 2.95997 10.7014 3.43593 10.4937C3.95068 10.2683 4.0137 9.77048 3.91835 9.55149C3.88441 9.47472 3.8432 9.4125 3.79876 9.36321L3.38017 9.54664C3.26704 9.59594 3.22906 9.77048 3.26219 9.84725L3.2234 9.86422L2.97774 9.30341Z" fill="#1A1A1A"/>
<path d="M2.33206 8.52604L2.86459 8.49857C2.85166 8.24968 2.76843 8.01695 2.64318 8.02342L2.64075 7.97897L3.10216 7.95554L3.10459 7.99998C2.98095 8.00645 2.92277 8.24564 2.9357 8.49534L3.49166 8.46705C3.62499 8.46059 3.69368 8.34907 3.6856 8.19715C3.66216 7.74867 3.46176 7.67998 3.25489 7.69048L3.25247 7.64604L3.71711 7.6218C3.75105 7.62018 3.7761 7.63958 3.77772 7.67352L3.84075 8.90099L3.79873 8.90342C3.79388 8.81695 3.64681 8.75635 3.56277 8.76039L2.26984 8.82746C2.1858 8.8315 2.04519 8.90746 2.04923 8.99392L2.00479 8.99635L1.94176 7.76887C1.94015 7.73493 1.96277 7.7123 1.99913 7.71069L2.46378 7.68725L2.46621 7.7317C2.26984 7.7422 2.06378 7.83109 2.08641 8.27958C2.09287 8.43069 2.21408 8.53251 2.33206 8.52604Z" fill="#1A1A1A"/>
<path d="M4.40239 5.4974L4.44199 5.51194L4.22947 6.09134L4.18987 6.07679C4.21815 6.00002 4.13169 5.90709 4.03714 5.88366L2.68927 5.5475L4.0525 6.57215L4.01451 6.67558C4.01451 6.67558 3.86825 6.73134 3.58461 6.7273L2.50664 6.75316L3.53775 7.19114C3.69613 7.25497 3.75835 7.25255 3.79148 7.16447L3.83108 7.17902L3.69613 7.54588L3.65653 7.53134C3.68563 7.45215 3.60724 7.36164 3.49492 7.30992L2.28442 6.74427L2.12765 6.737C2.09694 6.737 2.0727 6.76447 2.06219 6.79437L2.02017 6.77902L2.13654 6.46386C2.14947 6.42912 2.16644 6.42184 2.18341 6.41942L3.68078 6.41053L2.48644 5.51275L2.6529 5.05942L2.69492 5.07477C2.66583 5.15316 2.73936 5.21134 2.8735 5.24932L4.13653 5.56528C4.22138 5.58467 4.37249 5.57821 4.40239 5.4974Z" fill="#1A1A1A"/>
<path d="M6.00722 4.09691L6.0355 4.12843L5.57409 4.53893L5.54581 4.50742C5.60641 4.45328 5.5749 4.33045 5.50217 4.26499L4.47187 3.33247L5.19106 4.87913L5.10863 4.95267C5.10863 4.95267 4.95348 4.93247 4.70459 4.79509L3.74136 4.30944L4.44359 5.18136C4.55348 5.31227 4.60924 5.33974 4.67954 5.27671L4.70702 5.30823L4.4145 5.56843L4.38622 5.53691C4.44925 5.48115 4.42258 5.36398 4.34823 5.26459L3.54743 4.19469L3.41248 4.11388C3.385 4.09934 3.35106 4.11227 3.32763 4.13328L3.29773 4.10015L3.54904 3.87631C3.57652 3.85206 3.5951 3.85287 3.61126 3.85934L4.93571 4.55752L4.30621 3.20156L4.66743 2.87994L4.69732 2.91308C4.63429 2.96883 4.67227 3.0553 4.77248 3.15227L5.73732 4.02661C5.80601 4.08883 5.94177 4.15429 6.00722 4.09691Z" fill="#1A1A1A"/>
<path d="M7.34956 3.52808C7.4029 3.60566 7.52896 3.71233 7.61138 3.68728L7.6235 3.72768L6.99724 3.91677L6.98512 3.87637C7.0635 3.85293 7.0829 3.72849 7.03037 3.64364L6.90673 3.46182L6.20774 3.67273L6.2029 3.87475C6.19886 3.9798 6.28613 4.08808 6.36936 4.06303L6.38148 4.10344L5.96128 4.23031L5.94916 4.1899C6.02997 4.16566 6.07522 4.00647 6.07684 3.91273L6.15926 2.41213C6.11643 2.36202 6.06956 2.32404 6.02189 2.33859L6.00895 2.29576L6.24492 2.22465C6.36775 2.18748 6.44855 2.26425 6.48249 2.31192L7.34956 3.52808ZM6.8437 3.37051L6.28451 2.5899C6.26674 2.55677 6.2328 2.57293 6.2336 2.60283L6.20532 3.56283L6.8437 3.37051Z" fill="#1A1A1A"/>
<path d="M8.5932 3.82708L8.20209 3.73576L8.21178 3.69213C8.29582 3.71152 8.37825 3.66061 8.39683 3.579L8.70714 2.24647C8.72572 2.16728 8.69259 2.00809 8.60774 1.98869L8.61744 1.94748L9.47966 2.14788C9.6841 2.19556 9.85299 2.31839 9.80612 2.51798C9.77137 2.66586 9.6542 2.79031 9.49178 2.8598C9.66067 2.92041 9.87319 3.14506 9.81016 3.41415C9.72047 3.80364 9.26633 3.98384 8.5932 3.82708ZM9.49016 3.33172C9.52329 3.19112 9.46673 3.01334 9.24693 2.96243C9.12653 2.93415 8.9641 2.95031 8.84208 2.99798L8.7031 3.59435C8.67805 3.70182 8.70471 3.71637 8.77097 3.73172C9.02794 3.79071 9.42875 3.59516 9.49016 3.33172ZM9.00289 2.3095L8.86632 2.89536C9.09178 2.79435 9.41259 2.7394 9.47077 2.48889C9.5039 2.34829 9.4045 2.24162 9.29137 2.21495L9.18632 2.19071C9.10794 2.17213 9.02148 2.23031 9.00289 2.3095Z" fill="#1A1A1A"/>
<path d="M11.7988 4.4299C11.4893 4.85091 10.897 4.94384 10.4776 4.63596C10.0582 4.32808 9.96932 3.73495 10.2788 3.31394C10.5883 2.89293 11.179 2.80242 11.5984 3.10949C12.0178 3.41818 12.1083 4.00889 11.7988 4.4299ZM11.5217 4.22626C11.7657 3.83596 11.7463 3.37454 11.4813 3.1806C11.2227 2.9907 10.8219 3.14262 10.577 3.53374C10.3322 3.92485 10.3507 4.38707 10.6093 4.57697C10.8744 4.77091 11.2776 4.61737 11.5217 4.22626Z" fill="#1A1A1A"/>
<path d="M13.6348 5.68562L13.5984 5.70663C13.5564 5.6339 13.3948 5.64764 13.3245 5.68804L12.556 6.11552C12.1277 6.36037 11.7698 6.18421 11.6211 5.924C11.4675 5.65491 11.3884 5.28885 11.8692 5.01411L12.6756 4.55269C12.7467 4.51229 12.8405 4.37976 12.7968 4.30461L12.8332 4.2836L13.1354 4.81208L13.0991 4.8331C13.0586 4.76198 12.8954 4.77411 12.8251 4.81451L12.0364 5.26542C11.7835 5.41007 11.6817 5.69774 11.8021 5.90784C11.9597 6.1834 12.2393 6.17532 12.5221 6.0137L13.2623 5.57815C13.3334 5.53774 13.4255 5.40279 13.3851 5.33249L13.4215 5.31148L13.6348 5.68562Z" fill="#1A1A1A"/>
<path d="M13.7819 9.75835C13.6445 10.219 13.2712 10.3757 12.9592 10.2828C12.2675 10.0759 12.0372 9.17654 12.2231 8.55512L12.2602 8.43149L12.3006 8.44361C12.2756 8.52684 12.3241 8.6125 12.4025 8.63593L13.7188 9.02947C13.7972 9.0529 13.9572 9.02947 13.9823 8.94623L14.0227 8.95836L13.7819 9.75835ZM13.0384 9.93371C13.335 10.0226 13.6178 9.8933 13.6873 9.66138L13.7334 9.50785C13.7568 9.42947 13.7091 9.34139 13.6308 9.31795L12.3879 8.94623C12.3152 8.92442 12.295 8.9624 12.2982 9.00684C12.3217 9.32442 12.5301 9.78179 13.0384 9.93371Z" fill="#1A1A1A"/>
<path d="M12.7063 11.2121L12.278 10.8945C12.1293 11.0949 12.0453 11.3268 12.1471 11.402L12.1204 11.4375L11.7487 11.162L11.7754 11.1264C11.8748 11.2 12.0719 11.0521 12.2206 10.8517L11.773 10.5204C11.6655 10.4404 11.5418 10.4832 11.4513 10.606C11.1839 10.9664 11.2954 11.1474 11.4618 11.2711L11.4352 11.3066L11.0627 11.0303C11.0352 11.0101 11.0287 10.9794 11.0489 10.9511L11.781 9.96359L11.815 9.98864C11.7633 10.0581 11.8384 10.1996 11.9063 10.2497L12.9463 11.0206C13.0134 11.0707 13.1709 11.1014 13.2218 11.0319L13.2574 11.0585L12.5253 12.046C12.5051 12.0735 12.4736 12.0767 12.4437 12.0541L12.0703 11.7769L12.097 11.7414C12.2554 11.8585 12.4711 11.9208 12.7386 11.5596C12.8299 11.4375 12.8008 11.2824 12.7063 11.2121Z" fill="#1A1A1A"/>
<path d="M10.1786 12.2368C9.97741 11.9483 10.0736 11.6315 10.4631 11.3592C10.741 11.1653 11.078 11.2348 11.1952 11.4029C11.3301 11.5968 11.1637 11.7932 11.1637 11.7932C11.1233 11.6194 10.7313 11.3196 10.4833 11.4925C10.3152 11.6097 10.2821 11.8287 10.3734 11.9596C10.6109 12.2998 11.3754 11.853 11.6833 12.295C11.8441 12.5253 11.7374 12.7855 11.4813 12.9649C11.0934 13.2356 10.7451 13.0845 10.7645 12.8784C10.7726 12.7475 10.9326 12.6966 10.9326 12.6966C10.9673 12.7459 11.1879 13.0214 11.4118 12.8647C11.5152 12.7928 11.5895 12.6287 11.5055 12.5075C11.3043 12.2206 10.4388 12.6093 10.1786 12.2368Z" fill="#1A1A1A"/>
<path d="M9.82785 13.7229C9.90623 13.693 9.92158 13.533 9.89249 13.4546L9.43593 12.2433C9.40603 12.1649 9.28885 12.055 9.21047 12.0841L9.19592 12.0445L9.76562 11.8296L9.78017 11.8692C9.69936 11.8999 9.68643 12.0591 9.71552 12.1375L10.1721 13.3488C10.202 13.4272 10.3167 13.5387 10.3975 13.508L10.4129 13.55L9.8432 13.7649L9.82785 13.7229Z" fill="#1A1A1A"/>
<path d="M7.5531 13.1734L7.54987 13.1314C7.61774 13.1265 7.62179 13.0368 7.61613 12.9552L7.57411 12.3734C7.663 12.3306 7.82542 12.2077 8.16886 12.1835C8.58259 12.1536 9.14583 12.5536 9.18381 13.0901C9.23229 13.7657 8.74906 14.0348 8.27714 14.0687C7.90542 14.0954 7.70017 13.9128 7.68562 13.7503C7.67916 13.6558 7.73815 13.5677 7.84563 13.5548C7.90542 13.5451 7.95875 13.5572 7.95875 13.5572C7.96279 13.6146 8.05653 13.9637 8.27876 13.9475C8.54865 13.9281 8.8638 13.6582 8.82663 13.1394C8.78623 12.5786 8.33855 12.3532 8.10017 12.3702C8.01613 12.3758 7.94421 12.3944 7.88279 12.4203L7.91512 12.876C7.92401 12.9988 8.07512 13.0934 8.15916 13.0877L8.16239 13.1297L7.5531 13.1734Z" fill="#1A1A1A"/>
<path d="M5.34222 13.4852L5.35597 13.4432C5.43839 13.4706 5.54829 13.3551 5.57495 13.2751L6.08081 11.7939L6.15596 11.8189C6.15596 11.8189 6.26828 12.0476 6.32647 12.2715C6.43879 12.707 6.6392 13.2719 6.73293 13.6242L7.11758 12.4234C7.14425 12.3434 7.12485 12.185 7.04485 12.1583L7.05778 12.1187L7.45374 12.2504L7.44081 12.29C7.35839 12.2626 7.24849 12.3781 7.22182 12.4581L6.77899 13.7583C6.79435 13.8214 6.80162 13.924 6.89132 13.9531L6.87758 13.9959L6.48647 13.8658C6.45657 13.8561 6.44768 13.8335 6.44283 13.8214L6.00243 12.2884L5.67758 13.3098C5.65091 13.3898 5.67273 13.549 5.7503 13.5749L5.73657 13.6169L5.34222 13.4852Z" fill="#1A1A1A"/>
<path d="M13.3479 7.45456L13.0683 7.34951L12.9632 7.06992L12.8582 7.34951L12.5786 7.45456L12.8582 7.55961L12.9632 7.83921L13.0683 7.55961L13.3479 7.45456Z" fill="#1A1A1A"/>
<path d="M4.40253 11.4658L4.52617 11.7373L4.40253 12.0089L4.67405 11.8852L4.94556 12.0089L4.82192 11.7373L4.94556 11.4658L4.67405 11.5895L4.40253 11.4658Z" fill="#1A1A1A"/>
<defs>
<linearGradient id="paint0_linear" x1="1.17459" y1="0.603547" x2="14.6001" y2="15.1523" gradientUnits="userSpaceOnUse">
<stop stop-color="#EFEFEF"/>
<stop offset="1" stop-color="#CFE8DB"/>
</linearGradient>
</defs>
</svg>
